<svg version="1.1" id="Layer_1" xmlns="http://www.w3.org/2000/svg" xmlns:xlink="http://www.w3.org/1999/xlink" x="0px" y="0px"
	 width="100%" viewBox="0 0 512 433" enable-background="new 0 0 512 433" xml:space="preserve">
<path fill="#000000" opacity="1.000000" stroke="none" 
	d="
M306.000000,434.000000 
	C204.000000,434.000000 102.500000,434.000000 1.000000,434.000000 
	C1.000000,289.666656 1.000000,145.333328 1.000000,1.000000 
	C171.666672,1.000000 342.333344,1.000000 513.000000,1.000000 
	C513.000000,145.333328 513.000000,289.666656 513.000000,434.000000 
	C444.166656,434.000000 375.333344,434.000000 306.000000,434.000000 
M163.645752,263.274872 
	C163.428558,263.458160 163.304199,263.691040 162.906372,264.509766 
	C161.918900,265.641876 160.931427,266.773956 159.368469,268.252747 
	C157.214203,270.830292 155.059937,273.407867 152.309189,276.354614 
	C151.209198,278.645233 149.281799,280.893890 149.163116,283.234253 
	C148.795547,290.481934 149.116272,297.764557 149.088196,305.765686 
	C149.107239,306.500427 149.126282,307.235199 149.047104,308.820618 
	C148.368515,312.630463 149.674911,315.222290 152.933014,317.624847 
	C164.269699,325.984741 175.384216,334.649750 186.453369,343.363678 
	C187.798828,344.422852 188.354111,346.485779 188.868484,348.637787 
	C184.902084,353.155029 180.935684,357.672241 176.042084,362.078522 
	C165.665176,362.054413 155.275513,361.736694 144.919250,362.187225 
	C141.862411,362.320251 138.899963,364.623352 135.278641,366.295654 
	C130.422775,370.707397 132.534531,376.628387 130.979538,381.987671 
	C127.426514,381.987671 123.873482,381.987671 120.387749,381.987671 
	C120.387749,394.143188 120.387749,405.326477 120.387749,416.834412 
	C131.183121,416.834412 141.588516,416.834412 152.925629,416.949951 
	C160.940704,416.909149 168.955795,416.868317 177.902405,416.934174 
	C182.606216,416.901367 187.310028,416.868530 192.944061,416.938721 
	C206.306946,416.902313 219.669815,416.865875 233.616882,416.882935 
	C233.810562,416.855194 234.004257,416.827484 234.794678,416.910828 
	C235.194214,416.890533 235.593765,416.870209 236.889679,416.976562 
	C239.622055,416.929077 242.354446,416.881622 245.998520,416.986298 
	C252.997513,416.938721 259.996521,416.891113 267.922272,416.996857 
	C275.943176,416.945068 283.964111,416.893280 292.895233,416.975342 
	C296.265991,416.928375 299.636780,416.881439 303.935486,416.966309 
	C310.627228,416.919189 317.318939,416.872070 324.938507,416.955872 
	C332.628204,416.919586 340.317871,416.883301 348.582642,416.966278 
	C348.968719,416.901489 349.354767,416.836700 350.369324,416.871338 
	C350.581329,416.864258 350.793304,416.857178 351.915924,416.942535 
	C354.677521,416.894165 357.439087,416.845795 361.097290,416.976959 
	C371.995850,416.976959 382.894409,416.976959 394.002319,416.976959 
	C394.002319,410.143677 394.002319,404.004059 394.050629,396.947906 
	C394.037415,393.615326 393.777435,390.260651 394.073822,386.955841 
	C394.439056,382.883118 392.731659,381.798340 388.906555,381.921387 
	C381.241547,382.167908 382.074280,382.260345 381.974579,374.838379 
	C381.877350,367.599945 376.635315,362.181976 369.518707,362.049103 
	C363.358063,361.934082 357.191772,362.121033 350.362213,362.147766 
	C350.142273,362.179962 349.922302,362.212189 349.144592,362.147614 
	C348.773071,362.153992 348.401550,362.160370 347.125000,362.027466 
	C344.072845,362.070312 341.020691,362.113129 337.124817,362.010742 
	C333.774200,362.332733 331.060455,361.775696 328.890137,358.582825 
	C326.732239,355.408234 323.735565,352.803772 320.851593,349.344116 
	C319.951843,348.396301 319.052063,347.448486 317.954224,346.291992 
	C319.817963,344.790314 321.560455,343.386353 323.864075,341.706787 
	C325.353302,340.435822 326.841888,339.164093 328.331909,337.894043 
	C334.924927,332.274475 341.518402,326.655457 348.723724,320.748657 
	C352.178619,317.995300 355.417053,314.894867 359.140900,312.572815 
	C364.272003,309.373322 367.248474,305.487427 365.946838,298.360901 
	C368.137238,292.722076 366.774841,288.338531 362.039673,284.378784 
	C355.996552,279.325256 350.432739,273.698517 344.533478,268.198700 
	C355.497437,251.676300 363.196869,234.073303 366.867859,213.932999 
	C367.534821,207.300659 368.201782,200.668335 368.975067,193.100113 
	C368.594818,185.736099 368.214539,178.372101 367.962738,170.332092 
	C367.681427,169.529633 367.400116,168.727173 367.046875,167.071991 
	C365.734406,152.390121 360.094910,139.100555 353.709656,125.338333 
	C352.785370,123.807945 351.957642,122.208488 350.920532,120.758820 
	C345.724823,113.496078 340.474243,106.272568 334.925568,98.410042 
	C332.653168,95.924500 330.380768,93.438950 327.841675,90.333412 
	C323.599060,86.541145 319.356415,82.748878 314.835266,78.329651 
	C310.594849,75.205170 306.354431,72.080696 301.829620,68.323608 
	C299.585693,66.734863 297.284576,65.220192 295.110626,63.540825 
	C291.400513,60.674725 286.042450,59.562428 284.971375,53.234455 
	C282.127533,37.418354 262.595062,29.057713 246.692474,29.435740 
	C247.186432,37.640373 247.678986,45.821808 248.030579,54.885258 
	C249.213028,61.228355 246.531128,65.207253 240.536911,67.188995 
	C240.291550,67.270103 240.145111,67.650383 239.227173,67.999893 
	C232.159698,72.043304 225.092224,76.086723 217.461182,80.049545 
	C217.244186,80.348999 217.027191,80.648460 216.109436,81.035912 
	C207.390549,85.985809 198.671661,90.935707 189.232101,96.010582 
	C182.138107,99.970139 175.044128,103.929688 167.240845,108.006248 
	C164.180527,109.725586 161.120209,111.444923 157.370590,113.272255 
	C155.114716,114.555702 152.858765,115.838997 150.602997,117.122627 
	C142.392059,121.795029 134.181168,126.467537 125.492088,131.150772 
	C125.157669,131.328766 125.040062,131.600586 125.060135,132.488556 
	C125.089981,132.662125 125.119820,132.835678 124.785370,133.695694 
	C124.301720,135.226013 123.740013,136.736618 123.347878,138.290039 
	C121.608131,145.181839 119.917023,152.085938 118.090385,159.722763 
	C119.118439,161.708817 119.869499,163.911530 121.223541,165.642593 
	C126.469200,172.348907 131.894409,178.915192 137.277481,185.513458 
	C140.751038,189.771133 144.267654,193.993683 147.607422,198.041046 
	C154.826279,193.817963 161.450714,189.942612 168.832703,185.980438 
	C178.511505,183.859634 188.190308,181.738815 198.721237,179.845367 
	C208.903534,181.220886 219.149689,182.391571 228.440323,188.744232 
	C222.170227,196.001709 216.272278,202.828445 210.024261,210.193344 
	C197.311157,224.778625 184.598068,239.363922 171.321228,254.296783 
	C168.892853,257.196564 166.464478,260.096375 163.977020,262.993927 
	C163.977020,262.993927 163.983597,263.052704 163.645752,263.274872 
z"/>
<path fill="#5A2423" opacity="1.000000" stroke="none" 
	d="
M366.614624,214.726318 
	C363.196869,234.073303 355.497437,251.676300 344.533478,268.198700 
	C350.432739,273.698517 355.996552,279.325256 362.039673,284.378784 
	C366.774841,288.338531 368.137238,292.722076 365.547821,298.662170 
	C359.814148,296.215118 354.479492,293.466736 349.015350,290.415222 
	C342.948273,286.641327 337.010681,283.170593 330.822815,279.480164 
	C324.484497,275.717163 318.461304,272.055969 312.290833,268.662567 
	C305.586853,264.975800 298.745941,261.538055 291.969604,257.661774 
	C291.986237,256.893433 291.998016,256.455048 292.376587,256.004425 
	C301.312408,251.243515 309.964447,246.637527 318.431091,241.712784 
	C331.203857,234.283356 343.847198,226.631393 356.886108,219.088074 
	C360.356018,217.643524 363.485321,216.184921 366.614624,214.726318 
z"/>
<path fill="#B99A6B" opacity="1.000000" stroke="none" 
	d="
M245.086823,416.834167 
	C242.354446,416.881622 239.622055,416.929077 236.444870,416.454285 
	C236.007690,409.281921 236.015320,402.631836 236.355988,395.903503 
	C237.684235,394.773651 238.907318,393.858887 239.635406,392.646820 
	C242.887833,387.232361 245.984787,381.724792 249.164200,376.266205 
	C255.440109,365.491425 261.777100,354.751862 267.977631,343.933960 
	C269.037720,342.084442 271.030975,339.884064 268.091919,337.686218 
	C276.562195,332.924316 284.821381,328.430878 293.371460,324.050446 
	C294.430908,324.478394 295.199463,324.793304 296.171051,325.324036 
	C297.430847,326.052002 298.487579,326.564178 299.812744,327.315430 
	C300.713928,327.884827 301.346741,328.215088 302.166016,328.752167 
	C303.243042,329.618378 304.133575,330.277802 305.156189,331.265900 
	C306.322479,331.996460 307.356750,332.398315 308.527832,332.766968 
	C308.664703,332.733765 308.939911,332.673950 309.133698,332.849731 
	C309.571960,333.272461 309.816406,333.519409 309.865448,334.098022 
	C306.583984,338.696991 302.049377,336.715210 298.127258,336.904602 
	C294.706116,337.069824 292.254181,337.786011 290.398560,341.057404 
	C278.379517,362.246918 266.133057,383.307434 254.120270,404.500397 
	C253.208160,406.109558 253.526245,408.416016 253.127838,410.681580 
	C250.351059,412.921295 247.718933,414.877716 245.086823,416.834167 
z"/>
<path fill="#A15A4F" opacity="1.000000" stroke="none" 
	d="
M367.834259,171.008087 
	C368.214539,178.372101 368.594818,185.736099 368.599152,193.708130 
	C356.211700,194.544098 344.201019,194.871185 332.188416,194.973511 
	C318.823364,195.087357 305.456573,194.996521 292.047729,194.577576 
	C291.878510,193.331985 291.752106,192.503601 291.749390,191.248993 
	C291.993500,184.211349 292.113922,177.599960 292.677551,170.991501 
	C318.025238,170.998993 342.929749,171.003540 367.834259,171.008087 
z"/>
<path fill="#99584E" opacity="1.000000" stroke="none" 
	d="
M367.898499,170.670090 
	C342.929749,171.003540 318.025238,170.998993 292.623779,170.534363 
	C292.047546,166.388214 291.968262,162.702133 291.938751,158.547821 
	C291.946228,149.396042 291.903900,140.712463 291.909668,131.592178 
	C292.038818,129.386093 292.119873,127.616722 292.551880,125.866081 
	C293.604767,125.923515 294.306763,125.962219 295.251282,126.237289 
	C303.226898,131.027756 310.927185,135.638626 318.699860,140.124100 
	C334.819122,149.426239 350.976868,158.661789 367.118774,167.924713 
	C367.400116,168.727173 367.681427,169.529633 367.898499,170.670090 
z"/>
<path fill="#A85D50" opacity="1.000000" stroke="none" 
	d="
M292.090546,194.994781 
	C305.456573,194.996521 318.823364,195.087357 332.188416,194.973511 
	C344.201019,194.871185 356.211700,194.544098 368.545990,194.176071 
	C368.201782,200.668335 367.534821,207.300659 366.741241,214.329651 
	C363.485321,216.184921 360.356018,217.643524 356.409149,219.078827 
	C334.428741,219.034821 313.265869,219.014099 292.078461,218.525848 
	C292.066101,210.370499 292.078339,202.682632 292.090546,194.994781 
z"/>
<path fill="#C8B387" opacity="1.000000" stroke="none" 
	d="
M328.108368,90.953400 
	C330.380768,93.438950 332.653168,95.924500 334.881897,99.005371 
	C330.821564,101.959412 326.820038,104.344292 322.785339,106.671700 
	C312.642914,112.522331 302.485474,118.346977 292.033081,124.128807 
	C291.529877,124.050179 291.327667,124.024788 290.803650,123.854599 
	C279.858429,117.707321 269.235046,111.704842 258.354431,105.445389 
	C251.936737,101.512871 245.776276,97.837326 239.987488,93.987686 
	C243.238770,93.209267 246.115417,92.097603 248.998505,92.080597 
	C272.927460,91.939346 296.857727,92.030426 320.787292,91.954330 
	C323.228699,91.946571 325.668060,91.302307 328.108368,90.953400 
z"/>
<path fill="#4A3D43" opacity="1.000000" stroke="none" 
	d="
M360.200684,416.797424 
	C357.439087,416.845795 354.677521,416.894165 351.452728,416.440430 
	C351.002350,398.017029 351.015198,380.095734 351.028015,362.174469 
	C357.191772,362.121033 363.358063,361.934082 369.518707,362.049103 
	C376.635315,362.181976 381.877350,367.599945 381.974579,374.838379 
	C382.074280,382.260345 381.241547,382.167908 388.906555,381.921387 
	C392.731659,381.798340 394.439056,382.883118 394.073822,386.955841 
	C393.777435,390.260651 394.037415,393.615326 393.656769,397.313080 
	C382.242188,404.051300 371.221436,410.424377 360.200684,416.797424 
z"/>
<path fill="#BDA071" opacity="1.000000" stroke="none" 
	d="
M253.272507,410.398346 
	C253.526245,408.416016 253.208160,406.109558 254.120270,404.500397 
	C266.133057,383.307434 278.379517,362.246918 290.398560,341.057404 
	C292.254181,337.786011 294.706116,337.069824 298.127258,336.904602 
	C302.049377,336.715210 306.583984,338.696991 310.126953,334.158081 
	C310.934875,333.951721 311.285858,334.017029 311.888489,334.318787 
	C312.751495,334.872742 313.362915,335.190247 314.208344,335.722717 
	C317.395874,337.952606 320.349396,339.967499 323.302917,341.982391 
	C321.560455,343.386353 319.817963,344.790314 317.954224,346.291992 
	C319.052063,347.448486 319.951843,348.396301 320.587708,349.810120 
	C318.359131,350.516907 316.397736,350.927429 314.429108,350.965637 
	C309.109406,351.068817 303.786652,351.012390 298.465088,351.021484 
	C294.127716,351.028870 291.488953,352.565125 291.950378,357.545685 
	C292.240601,360.678986 292.014832,363.860107 292.017853,367.486328 
	C292.010071,374.999146 292.004974,382.045349 291.992004,389.329346 
	C291.984131,389.567108 291.956726,390.042114 291.609772,390.097046 
	C282.207031,395.413330 273.151245,400.674744 263.752197,406.074585 
	C260.030151,407.608124 256.651337,409.003235 253.272507,410.398346 
z"/>
<path fill="#70413B" opacity="1.000000" stroke="none" 
	d="
M131.887451,381.951782 
	C132.534531,376.628387 130.422775,370.707397 135.904968,366.271484 
	C140.548340,368.516937 144.561691,370.793121 148.583191,373.054810 
	C158.044907,378.376160 167.510513,383.690552 176.980896,389.006470 
	C176.987228,389.005219 176.995728,389.005615 176.993896,389.473938 
	C176.985016,398.903992 176.977951,407.865753 176.970886,416.827515 
	C168.955795,416.868317 160.940704,416.909149 152.453506,416.516083 
	C151.677902,414.807709 151.647461,413.378876 151.027924,412.283051 
	C145.902969,403.218048 140.721008,394.183838 135.411072,385.226410 
	C134.626846,383.903503 133.080948,383.032104 131.887451,381.951782 
z"/>
<path fill="#A54A27" opacity="1.000000" stroke="none" 
	d="
M367.082825,167.498352 
	C350.976868,158.661789 334.819122,149.426239 318.699860,140.124100 
	C310.927185,135.638626 303.226898,131.027756 295.491730,126.075775 
	C301.207733,126.077049 306.927643,126.832886 312.643616,126.804291 
	C326.374939,126.735603 340.104462,126.298920 353.834686,126.010712 
	C360.094910,139.100555 365.734406,152.390121 367.082825,167.498352 
z"/>
<path fill="#65382F" opacity="1.000000" stroke="none" 
	d="
M177.436646,416.880859 
	C176.977951,407.865753 176.985016,398.903992 177.343262,389.402679 
	C187.022873,383.256989 196.351303,377.650879 206.066772,372.012512 
	C215.173157,367.282471 223.892532,362.584656 232.996231,357.919800 
	C233.637115,357.970764 233.893646,357.988708 234.216019,358.378265 
	C234.229462,359.499420 234.177078,360.248962 233.839081,360.998596 
	C233.363083,361.000336 233.172684,361.001984 232.606567,361.010010 
	C227.289078,361.444916 225.830856,365.787170 223.552856,369.014496 
	C212.537369,384.620270 207.312225,404.044250 192.013840,416.835724 
	C187.310028,416.868530 182.606216,416.901367 177.436646,416.880859 
z"/>
<path fill="#673931" opacity="1.000000" stroke="none" 
	d="
M192.478943,416.887207 
	C207.312225,404.044250 212.537369,384.620270 223.552856,369.014496 
	C225.830856,365.787170 227.289078,361.444916 232.610825,361.447815 
	C233.366394,364.609467 233.741974,367.339600 234.193634,370.526276 
	C234.214890,375.637329 234.160080,380.291870 233.908295,385.172546 
	C233.841400,386.282684 233.971481,387.166687 234.176285,388.511414 
	C234.192017,397.974396 234.133026,406.976685 233.885620,416.102356 
	C233.450668,416.399414 233.229156,416.600647 233.032700,416.829437 
	C219.669815,416.865875 206.306946,416.902313 192.478943,416.887207 
z"/>
<path fill="#5F2D32" opacity="1.000000" stroke="none" 
	d="
M159.943939,267.906006 
	C160.931427,266.773956 161.918900,265.641876 163.233124,264.109375 
	C163.741531,263.516296 163.882767,263.297546 163.983597,263.052704 
	C163.983597,263.052704 163.977020,262.993927 164.374298,262.974487 
	C168.386673,261.183746 172.001755,259.412476 176.327805,257.292847 
	C174.219803,255.706390 173.052383,254.827805 171.884979,253.949219 
	C184.598068,239.363922 197.311157,224.778625 210.506409,210.174347 
	C218.315613,214.381104 225.642685,218.606842 233.243683,222.903900 
	C233.700439,223.022034 233.883240,223.068817 233.963409,223.448792 
	C222.580444,230.468170 211.300125,237.154327 199.666779,243.891891 
	C197.746964,244.925934 196.180161,245.908569 194.368576,246.931641 
	C193.735306,247.262360 193.346817,247.552658 192.596924,247.889526 
	C187.709610,250.524445 183.183701,253.112839 177.694000,256.252411 
	C181.723984,258.999878 184.812073,261.105194 188.062759,263.492645 
	C189.479904,264.589294 190.734467,265.403839 191.870224,266.569397 
	C190.032852,267.612000 188.336182,268.826965 186.591766,268.899933 
	C180.626389,269.149384 174.641113,269.112488 168.669846,268.949524 
	C165.753891,268.869904 162.852127,268.270264 159.943939,267.906006 
z"/>
<path fill="#C5AE82" opacity="1.000000" stroke="none" 
	d="
M327.975037,90.643402 
	C325.668060,91.302307 323.228699,91.946571 320.787292,91.954330 
	C296.857727,92.030426 272.927460,91.939346 248.998505,92.080597 
	C246.115417,92.097603 243.238770,93.209267 239.708160,93.905022 
	C238.363037,93.639412 237.668884,93.282364 236.798538,92.750801 
	C236.365387,92.364067 236.084198,92.191277 235.502777,91.970177 
	C234.862381,91.751694 234.498032,91.620949 234.116348,91.362366 
	C234.099030,91.234535 234.041763,90.982986 234.094330,90.947319 
	C234.146881,90.911652 234.009796,90.967896 233.679947,90.859421 
	C227.836792,87.483276 222.323486,84.215591 216.810181,80.947922 
	C217.027191,80.648460 217.244186,80.348999 218.064987,80.274323 
	C222.446838,80.332733 226.224609,80.029266 230.002960,80.022316 
	C253.920837,79.978340 277.839081,80.052544 301.756653,79.952934 
	C306.210358,79.934387 310.661469,79.304405 315.113800,78.956612 
	C319.356415,82.748878 323.599060,86.541145 327.975037,90.643402 
z"/>
<path fill="#5C536C" opacity="1.000000" stroke="none" 
	d="
M349.144836,290.718384 
	C354.479492,293.466736 359.814148,296.215118 365.478027,299.079773 
	C367.248474,305.487427 364.272003,309.373322 359.140900,312.572815 
	C355.417053,314.894867 352.178619,317.995300 347.961609,320.885010 
	C333.774200,320.678589 320.345764,320.416351 306.927490,319.893707 
	C305.200836,319.826477 303.526855,318.408356 302.076904,317.401855 
	C312.188995,311.404877 322.052673,305.622040 332.238770,299.723389 
	C338.089081,296.644501 343.616943,293.681458 349.144836,290.718384 
z"/>
<path fill="#442628" opacity="1.000000" stroke="none" 
	d="
M189.275635,348.083496 
	C188.354111,346.485779 187.798828,344.422852 186.453369,343.363678 
	C175.384216,334.649750 164.269699,325.984741 152.933014,317.624847 
	C149.674911,315.222290 148.368515,312.630463 149.416046,308.472809 
	C150.845871,308.422760 151.906784,308.720490 153.208557,309.253876 
	C160.446991,313.639099 167.391129,317.884583 174.495163,321.843170 
	C175.670609,322.498169 177.839035,322.442200 179.048798,321.789062 
	C186.357162,317.843231 193.585892,313.735321 200.664062,309.392822 
	C201.784149,308.705688 202.005676,306.553894 203.024063,305.243835 
	C203.889725,305.674988 204.373978,305.941589 205.067352,306.559052 
	C205.486984,308.687408 205.861176,310.463135 205.880386,312.242706 
	C205.976761,321.161987 205.980179,330.082306 205.949036,339.325195 
	C205.775787,340.075989 205.669785,340.503876 205.217163,340.971344 
	C199.672256,343.368469 194.473938,345.726013 189.275635,348.083496 
z"/>
<path fill="#B16653" opacity="1.000000" stroke="none" 
	d="
M197.869110,179.617996 
	C188.190308,181.738815 178.511505,183.859634 168.163422,185.832977 
	C161.906616,182.410477 156.278885,179.201675 150.742096,175.842941 
	C144.386093,171.987198 138.110718,167.998596 132.242615,164.077637 
	C136.136978,164.391708 139.588150,164.947113 143.041214,164.959244 
	C165.579910,165.038528 188.119171,164.960037 210.657745,165.054901 
	C213.242096,165.065765 215.823288,165.830109 218.149628,166.477829 
	C211.218582,171.013046 204.543839,175.315521 197.869110,179.617996 
z"/>
<path fill="#B4966C" opacity="1.000000" stroke="none" 
	d="
M324.010681,416.824951 
	C317.318939,416.872070 310.627228,416.919189 303.555115,416.574524 
	C312.162994,401.175659 321.173218,386.181549 330.075134,371.123413 
	C330.524872,370.362610 330.039246,369.048828 330.223999,367.753052 
	C332.962097,365.727692 335.465332,363.941833 337.968536,362.155975 
	C341.020691,362.113129 344.072845,362.070312 347.571899,362.551086 
	C348.007324,367.378418 347.995850,371.682129 347.650635,376.073486 
	C346.404205,377.068604 345.258606,377.836548 344.617310,378.906677 
	C341.034973,384.884705 337.428314,390.856720 334.112488,396.983612 
	C330.581238,403.508667 327.364655,410.203979 324.010681,416.824951 
z"/>
<path fill="#7F4636" opacity="1.000000" stroke="none" 
	d="
M198.295166,179.731689 
	C204.543839,175.315521 211.218582,171.013046 218.477097,166.406921 
	C223.300964,164.043564 227.541046,161.983887 232.183441,159.944000 
	C233.118301,159.971252 233.650864,159.978714 234.248169,160.452271 
	C234.232132,180.619156 234.151321,200.319962 233.867035,220.256256 
	C233.432297,221.272018 233.201019,222.052292 232.969757,222.832581 
	C225.642685,218.606842 218.315613,214.381104 210.681427,209.905273 
	C216.272278,202.828445 222.170227,196.001709 228.440323,188.744232 
	C219.149689,182.391571 208.903534,181.220886 198.295166,179.731689 
z"/>
<path fill="#5E3230" opacity="1.000000" stroke="none" 
	d="
M189.072052,348.360657 
	C194.473938,345.726013 199.672256,343.368469 205.324890,341.434509 
	C205.746048,351.920319 205.712891,361.982513 205.679749,372.044739 
	C196.351303,377.650879 187.022873,383.256989 177.345078,388.934387 
	C176.995728,389.005615 176.987228,389.005219 176.987976,388.537079 
	C176.982239,379.442444 176.975754,370.815948 176.969269,362.189453 
	C180.935684,357.672241 184.902084,353.155029 189.072052,348.360657 
z"/>
<path fill="#C4AC7F" opacity="1.000000" stroke="none" 
	d="
M314.974548,78.643127 
	C310.661469,79.304405 306.210358,79.934387 301.756653,79.952934 
	C277.839081,80.052544 253.920837,79.978340 230.002960,80.022316 
	C226.224609,80.029266 222.446838,80.332733 218.346771,80.314621 
	C225.092224,76.086723 232.159698,72.043304 239.934845,68.182495 
	C242.264618,68.576500 243.886414,68.969154 245.508820,68.971634 
	C264.377167,69.000534 283.245605,68.970581 302.114014,68.956215 
	C306.354431,72.080696 310.594849,75.205170 314.974548,78.643127 
z"/>
<path fill="#9D4726" opacity="1.000000" stroke="none" 
	d="
M353.772156,125.674522 
	C340.104462,126.298920 326.374939,126.735603 312.643616,126.804291 
	C306.927643,126.832886 301.207733,126.077049 295.249176,125.839417 
	C294.306763,125.962219 293.604767,125.923515 292.524292,125.587593 
	C292.208588,124.920929 292.271332,124.551483 292.334076,124.182037 
	C302.485474,118.346977 312.642914,112.522331 322.785339,106.671700 
	C326.820038,104.344292 330.821564,101.959412 335.040588,99.317978 
	C340.474243,106.272568 345.724823,113.496078 350.920532,120.758820 
	C351.957642,122.208488 352.785370,123.807945 353.772156,125.674522 
z"/>
<path fill="#B09066" opacity="1.000000" stroke="none" 
	d="
M329.989105,367.992523 
	C330.039246,369.048828 330.524872,370.362610 330.075134,371.123413 
	C321.173218,386.181549 312.162994,401.175659 303.091156,416.508606 
	C299.636780,416.881439 296.265991,416.928375 292.448547,416.450073 
	C291.986816,407.297241 291.971771,398.669678 291.956726,390.042114 
	C291.956726,390.042114 291.984131,389.567108 292.329773,389.225006 
	C304.465607,381.933105 316.255737,374.983276 328.369873,368.029602 
	C329.125610,368.014709 329.557343,368.003632 329.989105,367.992523 
z"/>
<path fill="#73443F" opacity="1.000000" stroke="none" 
	d="
M131.433487,381.969727 
	C133.080948,383.032104 134.626846,383.903503 135.411072,385.226410 
	C140.721008,394.183838 145.902969,403.218048 151.027924,412.283051 
	C151.647461,413.378876 151.677902,414.807709 151.987656,416.458313 
	C141.588516,416.834412 131.183121,416.834412 120.387749,416.834412 
	C120.387749,405.326477 120.387749,394.143188 120.387749,381.987671 
	C123.873482,381.987671 127.426514,381.987671 131.433487,381.969727 
z"/>
<path fill="#C2A97B" opacity="1.000000" stroke="none" 
	d="
M301.971802,68.639908 
	C283.245605,68.970581 264.377167,69.000534 245.508820,68.971634 
	C243.886414,68.969154 242.264618,68.576500 240.297562,68.128189 
	C240.145111,67.650383 240.291550,67.270103 240.536911,67.188995 
	C246.531128,65.207253 249.213028,61.228355 248.522400,54.440868 
	C260.952271,53.998726 272.890350,54.000969 284.828400,54.003216 
	C286.042450,59.562428 291.400513,60.674725 295.110626,63.540825 
	C297.284576,65.220192 299.585693,66.734863 301.971802,68.639908 
z"/>
<path fill="#C1A679" opacity="1.000000" stroke="none" 
	d="
M284.899902,53.618835 
	C272.890350,54.000969 260.952271,53.998726 248.592865,53.999863 
	C247.678986,45.821808 247.186432,37.640373 246.692474,29.435740 
	C262.595062,29.057713 282.127533,37.418354 284.899902,53.618835 
z"/>
<path fill="#643237" opacity="1.000000" stroke="none" 
	d="
M159.656204,268.079376 
	C162.852127,268.270264 165.753891,268.869904 168.669846,268.949524 
	C174.641113,269.112488 180.626389,269.149384 186.591766,268.899933 
	C188.336182,268.826965 190.032852,267.612000 192.212006,266.604950 
	C195.077652,267.539734 197.482712,268.790039 200.031403,270.343414 
	C201.432907,271.538116 202.690765,272.429749 203.833557,273.625641 
	C202.418716,274.881592 201.190689,275.955994 199.807327,276.764648 
	C192.172928,281.227570 184.500641,285.625641 176.550232,289.872192 
	C168.474625,285.127380 160.690155,280.556427 152.905670,275.985443 
	C155.059937,273.407867 157.214203,270.830292 159.656204,268.079376 
z"/>
<path fill="#8A5243" opacity="1.000000" stroke="none" 
	d="
M131.800308,164.067719 
	C138.110718,167.998596 144.386093,171.987198 150.742096,175.842941 
	C156.278885,179.201675 161.906616,182.410477 167.784637,185.876404 
	C161.450714,189.942612 154.826279,193.817963 147.607422,198.041046 
	C144.267654,193.993683 140.751038,189.771133 137.277481,185.513458 
	C131.894409,178.915192 126.469200,172.348907 121.223541,165.642593 
	C119.869499,163.911530 119.118439,161.708817 118.362686,159.226105 
	C119.058929,158.471268 119.482880,158.213104 120.161057,158.194489 
	C124.210281,160.311935 128.005295,162.189819 131.800308,164.067719 
z"/>
<path fill="#655870" opacity="1.000000" stroke="none" 
	d="
M301.828491,317.615997 
	C303.526855,318.408356 305.200836,319.826477 306.927490,319.893707 
	C320.345764,320.416351 333.774200,320.678589 347.655609,321.028809 
	C341.518402,326.655457 334.924927,332.274475 328.331909,337.894043 
	C326.841888,339.164093 325.353302,340.435822 323.583496,341.844604 
	C320.349396,339.967499 317.395874,337.952606 313.996887,335.432556 
	C312.913208,334.645752 312.275055,334.364075 311.636871,334.082367 
	C311.285858,334.017029 310.934875,333.951721 310.322388,333.826355 
	C309.816406,333.519409 309.571960,333.272461 308.998688,332.575745 
	C307.946503,331.776123 307.223114,331.426270 306.252136,331.076294 
	C305.679138,331.019501 305.352356,330.973206 305.024109,330.937225 
	C304.133575,330.277802 303.243042,329.618378 301.945953,328.453888 
	C300.874390,327.657990 300.209381,327.367157 299.544342,327.076355 
	C298.487579,326.564178 297.430847,326.052002 296.168457,324.888306 
	C295.897858,323.368927 295.832886,322.501099 295.877655,321.682190 
	C295.987396,321.731171 295.955811,321.969452 296.164856,321.747437 
	C296.571320,321.169342 296.768799,320.813293 297.182251,320.234802 
	C298.874969,319.213593 300.351715,318.414795 301.828491,317.615997 
z"/>
<path fill="#683A3D" opacity="1.000000" stroke="none" 
	d="
M176.505676,362.133972 
	C176.975754,370.815948 176.982239,379.442444 176.981628,388.538330 
	C167.510513,383.690552 158.044907,378.376160 148.583191,373.054810 
	C144.561691,370.793121 140.548340,368.516937 136.212769,366.089661 
	C138.899963,364.623352 141.862411,362.320251 144.919250,362.187225 
	C155.275513,361.736694 165.665176,362.054413 176.505676,362.133972 
z"/>
<path fill="#C2A97B" opacity="1.000000" stroke="none" 
	d="
M330.223999,367.753052 
	C329.557343,368.003632 329.125610,368.014709 328.015259,367.805969 
	C315.564606,367.397369 303.792572,367.208588 292.020569,367.019775 
	C292.014832,363.860107 292.240601,360.678986 291.950378,357.545685 
	C291.488953,352.565125 294.127716,351.028870 298.465088,351.021484 
	C303.786652,351.012390 309.109406,351.068817 314.429108,350.965637 
	C316.397736,350.927429 318.359131,350.516907 320.715271,350.112732 
	C323.735565,352.803772 326.732239,355.408234 328.890137,358.582825 
	C331.060455,361.775696 333.774200,362.332733 337.546692,362.083374 
	C335.465332,363.941833 332.962097,365.727692 330.223999,367.753052 
z"/>
<path fill="#552D33" opacity="1.000000" stroke="none" 
	d="
M152.967697,309.018219 
	C151.906784,308.720490 150.845871,308.422760 149.465149,308.047485 
	C149.126282,307.235199 149.107239,306.500427 149.464447,305.312134 
	C152.490967,303.503540 155.138779,302.143707 157.791962,300.794434 
	C164.250656,297.509918 170.711853,294.230347 177.502304,290.976990 
	C179.243927,291.603943 180.655289,292.202698 182.271500,292.939880 
	C182.476334,293.078247 182.944138,293.238159 183.105316,293.419006 
	C183.709534,293.781128 184.152573,293.962402 184.844955,294.397278 
	C190.915955,298.096039 196.737595,301.541168 202.300201,305.341339 
	C200.774841,306.415710 199.541214,307.683960 198.236649,307.761688 
	C191.709091,308.150726 185.163345,308.243835 178.623215,308.410309 
	C170.071762,308.627991 161.519577,308.816925 152.967697,309.018219 
z"/>
<path fill="#BDA071" opacity="1.000000" stroke="none" 
	d="
M324.474609,416.890411 
	C327.364655,410.203979 330.581238,403.508667 334.112488,396.983612 
	C337.428314,390.856720 341.034973,384.884705 344.617310,378.906677 
	C345.258606,377.836548 346.404205,377.068604 347.658325,376.543671 
	C348.002319,390.233154 348.004944,403.540070 348.007568,416.847015 
	C340.317871,416.883301 332.628204,416.919586 324.474609,416.890411 
z"/>
<path fill="#9D4726" opacity="1.000000" stroke="none" 
	d="
M125.970253,131.139999 
	C134.181168,126.467537 142.392059,121.795029 150.602997,117.122627 
	C152.858765,115.838997 155.114716,114.555702 157.909515,113.483147 
	C164.319702,117.137566 170.190964,120.581093 175.877411,124.309708 
	C170.139954,127.770615 164.587341,130.946442 158.719131,133.888260 
	C154.854599,133.118225 151.304703,132.131821 147.756897,132.139297 
	C140.220566,132.155151 132.685333,132.688202 125.149651,133.009232 
	C125.119820,132.835678 125.089981,132.662125 125.254776,132.107025 
	C125.646889,131.551559 125.820503,131.356384 125.970253,131.139999 
z"/>
<path fill="#C8B387" opacity="1.000000" stroke="none" 
	d="
M291.609772,390.097046 
	C291.971771,398.669678 291.986816,407.297241 291.993439,416.383179 
	C283.964111,416.893280 275.943176,416.945068 267.434418,416.550385 
	C265.996185,412.714661 265.045837,409.325378 264.095459,405.936127 
	C273.151245,400.674744 282.207031,395.413330 291.609772,390.097046 
z"/>
<path fill="#A54A27" opacity="1.000000" stroke="none" 
	d="
M124.967514,133.352463 
	C132.685333,132.688202 140.220566,132.155151 147.756897,132.139297 
	C151.304703,132.131821 154.854599,133.118225 158.474213,134.109589 
	C151.345856,139.011200 144.146866,143.457474 136.603973,147.991425 
	C130.809006,151.371048 125.357918,154.662979 119.906837,157.954926 
	C119.482880,158.213104 119.058929,158.471268 118.421646,158.857513 
	C119.917023,152.085938 121.608131,145.181839 123.347878,138.290039 
	C123.740013,136.736618 124.301720,135.226013 124.967514,133.352463 
z"/>
<path fill="#442628" opacity="1.000000" stroke="none" 
	d="
M177.172058,290.948792 
	C170.711853,294.230347 164.250656,297.509918 157.791962,300.794434 
	C155.138779,302.143707 152.490967,303.503540 149.505249,304.946106 
	C149.116272,297.764557 148.795547,290.481934 149.163116,283.234253 
	C149.281799,280.893890 151.209198,278.645233 152.607437,276.170044 
	C160.690155,280.556427 168.474625,285.127380 176.628876,290.099274 
	C176.998672,290.500183 177.172058,290.948792 177.172058,290.948792 
z"/>
<path fill="#A15A4F" opacity="1.000000" stroke="none" 
	d="
M216.459808,80.991913 
	C222.323486,84.215591 227.836792,87.483276 233.678894,90.879684 
	C234.007675,91.008408 234.041763,90.982986 234.041763,90.982986 
	C234.041763,90.982986 234.099030,91.234535 233.792694,91.548538 
	C229.508179,93.995277 225.530014,96.128006 221.051132,98.206436 
	C214.235779,98.099541 207.906921,98.284157 201.611694,97.907310 
	C197.699081,97.673103 193.837341,96.588516 189.952774,95.885605 
	C198.671661,90.935707 207.390549,85.985809 216.459808,80.991913 
z"/>
<path fill="#AB5E50" opacity="1.000000" stroke="none" 
	d="
M189.592438,95.948090 
	C193.837341,96.588516 197.699081,97.673103 201.611694,97.907310 
	C207.906921,98.284157 214.235779,98.099541 220.753326,98.416367 
	C217.225662,101.074036 213.495087,103.467484 209.448730,105.992386 
	C206.302811,107.540321 203.472656,108.956795 200.198822,110.239975 
	C191.382385,109.737572 183.006500,109.424454 174.638885,108.962112 
	C172.396393,108.838211 170.179047,108.259285 167.950150,107.889236 
	C175.044128,103.929688 182.138107,99.970139 189.592438,95.948090 
z"/>
<path fill="#B06051" opacity="1.000000" stroke="none" 
	d="
M167.595490,107.947746 
	C170.179047,108.259285 172.396393,108.838211 174.638885,108.962112 
	C183.006500,109.424454 191.382385,109.737572 199.899261,110.451401 
	C192.630234,115.179573 185.217117,119.563019 177.514465,123.960892 
	C176.837387,123.991753 176.449814,124.008186 176.062241,124.024612 
	C170.190964,120.581093 164.319702,117.137566 158.254150,113.429153 
	C161.120209,111.444923 164.180527,109.725586 167.595490,107.947746 
z"/>
<path fill="#B59465" opacity="1.000000" stroke="none" 
	d="
M360.648987,416.887207 
	C371.221436,410.424377 382.242188,404.051300 393.632629,397.771362 
	C394.002319,404.004059 394.002319,410.143677 394.002319,416.976959 
	C382.894409,416.976959 371.995850,416.976959 360.648987,416.887207 
z"/>
<path fill="#CAB5A5" opacity="1.000000" stroke="none" 
	d="
M263.752197,406.074585 
	C265.045837,409.325378 265.996185,412.714661 266.971039,416.473694 
	C259.996521,416.891113 252.997513,416.938721 245.542664,416.910217 
	C247.718933,414.877716 250.351059,412.921295 253.127838,410.681580 
	C256.651337,409.003235 260.030151,407.608124 263.752197,406.074585 
z"/>
<path fill="#BDA071" opacity="1.000000" stroke="none" 
	d="
M234.074020,415.978943 
	C234.133026,406.976685 234.192017,397.974396 234.234192,388.125366 
	C234.179993,386.501190 234.142639,385.723785 234.105255,384.946381 
	C234.160080,380.291870 234.214890,375.637329 234.254517,370.072845 
	C234.201096,366.441406 234.162903,363.719971 234.124695,360.998505 
	C234.177078,360.248962 234.229462,359.499420 234.249603,358.038208 
	C234.192261,357.100067 234.167175,356.873566 234.231628,356.608337 
	C234.321152,356.569550 234.375977,356.382263 234.511688,356.358337 
	C234.647400,356.334442 234.922943,356.340332 235.116577,356.687683 
	C235.537201,358.978058 235.947906,360.919891 235.960815,362.864349 
	C236.034134,373.903107 236.012360,384.942535 236.022949,395.981720 
	C236.015320,402.631836 236.007690,409.281921 235.996674,416.390991 
	C235.593765,416.870209 235.194214,416.890533 234.489899,416.646362 
	C234.185135,416.381927 234.074020,415.978943 234.074020,415.978943 
z"/>
<path fill="#C4AC7F" opacity="1.000000" stroke="none" 
	d="
M348.295105,416.906647 
	C348.004944,403.540070 348.002319,390.233154 347.992004,376.455994 
	C347.995850,371.682129 348.007324,367.378418 348.024414,362.620728 
	C348.401550,362.160370 348.773071,362.153992 349.370087,362.646118 
	C349.644012,381.020416 349.692444,398.896149 349.740845,416.771912 
	C349.354767,416.836700 348.968719,416.901489 348.295105,416.906647 
z"/>
<path fill="#442628" opacity="1.000000" stroke="none" 
	d="
M350.055084,416.821625 
	C349.692444,398.896149 349.644012,381.020416 349.648987,362.694519 
	C349.922302,362.212189 350.142273,362.179962 350.695129,362.161133 
	C351.015198,380.095734 351.002350,398.017029 350.997406,416.394226 
	C350.793304,416.857178 350.581329,416.864258 350.055084,416.821625 
z"/>
<path fill="#5A2423" opacity="1.000000" stroke="none" 
	d="
M171.603104,254.123001 
	C173.052383,254.827805 174.219803,255.706390 176.327805,257.292847 
	C172.001755,259.412476 168.386673,261.183746 164.403839,262.975586 
	C166.464478,260.096375 168.892853,257.196564 171.603104,254.123001 
z"/>
<path fill="#A54A27" opacity="1.000000" stroke="none" 
	d="
M125.731171,131.145386 
	C125.820503,131.356384 125.646889,131.551559 125.294342,131.845856 
	C125.040062,131.600586 125.157669,131.328766 125.731171,131.145386 
z"/>
<path fill="#5A2423" opacity="1.000000" stroke="none" 
	d="
M163.814667,263.163788 
	C163.882767,263.297546 163.741531,263.516296 163.416290,263.841248 
	C163.304199,263.691040 163.428558,263.458160 163.814667,263.163788 
z"/>
<path fill="#5F2D32" opacity="1.000000" stroke="none" 
	d="
M233.885620,416.102356 
	C234.074020,415.978943 234.185135,416.381927 234.191528,416.590851 
	C234.004257,416.827484 233.810562,416.855194 233.324799,416.856201 
	C233.229156,416.600647 233.450668,416.399414 233.885620,416.102356 
z"/>
<path fill="#B06051" opacity="1.000000" stroke="none" 
	d="
M292.103027,218.993378 
	C313.265869,219.014099 334.428741,219.034821 356.068542,219.064789 
	C343.847198,226.631393 331.203857,234.283356 318.431091,241.712784 
	C309.964447,246.637527 301.312408,251.243515 292.346741,256.119141 
	C291.950104,256.246063 291.718628,256.192200 291.799500,255.712402 
	C291.954590,243.152878 292.028809,231.073120 292.103027,218.993378 
z"/>
<path fill="#CAB5A5" opacity="1.000000" stroke="none" 
	d="
M187.900177,263.210510 
	C184.812073,261.105194 181.723984,258.999878 177.694000,256.252411 
	C183.183701,253.112839 187.709610,250.524445 192.662445,248.288345 
	C194.686615,249.426285 196.279846,250.886978 197.881683,250.896469 
	C222.414093,251.041565 246.947906,251.047165 271.480286,250.898895 
	C273.360016,250.887527 275.231262,249.478210 277.445099,248.831146 
	C282.428680,251.359802 287.073669,253.776001 291.718628,256.192200 
	C291.718628,256.192200 291.950104,256.246063 291.979980,256.131348 
	C291.998016,256.455048 291.986237,256.893433 291.986847,257.648010 
	C291.999237,257.964203 291.957764,257.951050 291.601074,257.958649 
	C288.839447,259.275238 286.434509,260.584229 283.696838,261.952454 
	C282.451843,262.640656 281.539612,263.269653 280.455994,263.867249 
	C280.284637,263.835876 279.939850,263.785828 279.643921,263.556641 
	C277.277283,262.885345 275.207855,262.065704 273.135681,262.058624 
	C247.628067,261.971069 222.119919,261.963654 196.612350,262.055847 
	C193.706940,262.066345 190.804169,262.807892 187.900177,263.210510 
z"/>
<path fill="#A19694" opacity="1.000000" stroke="none" 
	d="
M349.015350,290.415222 
	C343.616943,293.681458 338.089081,296.644501 331.953674,299.484558 
	C329.778381,298.913208 328.223846,298.132935 326.640717,298.069702 
	C315.384918,297.620056 304.123260,297.317017 292.705597,296.601318 
	C292.342041,293.486572 292.136383,290.737793 291.956116,287.622437 
	C292.237915,285.826111 292.494293,284.396362 293.234924,282.973419 
	C304.499542,282.985809 315.279968,282.985596 326.060364,283.001404 
	C328.476379,283.004944 330.882599,283.049683 331.073090,279.699890 
	C337.010681,283.170593 342.948273,286.641327 349.015350,290.415222 
z"/>
<path fill="#989191" opacity="1.000000" stroke="none" 
	d="
M330.822815,279.480164 
	C330.882599,283.049683 328.476379,283.004944 326.060364,283.001404 
	C315.279968,282.985596 304.499542,282.985809 293.113281,282.586975 
	C292.324158,274.112823 292.140961,266.031952 291.957764,257.951050 
	C291.957764,257.951050 291.999237,257.964203 291.981995,257.977966 
	C298.745941,261.538055 305.586853,264.975800 312.290833,268.662567 
	C318.461304,272.055969 324.484497,275.717163 330.822815,279.480164 
z"/>
<path fill="#B59465" opacity="1.000000" stroke="none" 
	d="
M236.355988,395.903503 
	C236.012360,384.942535 236.034134,373.903107 235.960815,362.864349 
	C235.947906,360.919891 235.537201,358.978058 235.406860,356.457764 
	C244.338028,350.590485 253.172531,345.300537 262.347900,339.929626 
	C264.419464,339.217316 266.150146,338.585999 267.880859,337.954681 
	C271.030975,339.884064 269.037720,342.084442 267.977631,343.933960 
	C261.777100,354.751862 255.440109,365.491425 249.164200,376.266205 
	C245.984787,381.724792 242.887833,387.232361 239.635406,392.646820 
	C238.907318,393.858887 237.684235,394.773651 236.355988,395.903503 
z"/>
<path fill="#9B7D67" opacity="1.000000" stroke="none" 
	d="
M268.091919,337.686218 
	C266.150146,338.585999 264.419464,339.217316 262.095093,339.715698 
	C257.035492,337.049866 260.360291,334.388977 261.636993,332.154449 
	C269.375885,318.609375 277.397888,305.225525 285.077087,291.647369 
	C286.758942,288.673553 288.854340,287.726593 291.930725,287.989014 
	C292.136383,290.737793 292.342041,293.486572 292.668457,297.021301 
	C292.754974,306.119751 292.720734,314.432281 292.780945,323.044281 
	C292.943817,323.541656 293.012207,323.739532 293.080566,323.937408 
	C284.821381,328.430878 276.562195,332.924316 268.091919,337.686218 
z"/>
<path fill="#5C536C" opacity="1.000000" stroke="none" 
	d="
M293.371460,324.050446 
	C293.012207,323.739532 292.943817,323.541656 293.061340,322.859131 
	C294.087524,322.127411 294.927704,321.880310 295.767914,321.633240 
	C295.832886,322.501099 295.897858,323.368927 295.965454,324.672485 
	C295.199463,324.793304 294.430908,324.478394 293.371460,324.050446 
z"/>
<path fill="#BDA071" opacity="1.000000" stroke="none" 
	d="
M305.156189,331.265900 
	C305.352356,330.973206 305.679138,331.019501 306.469788,331.317169 
	C307.420380,331.972198 307.905670,332.386200 308.390991,332.800201 
	C307.356750,332.398315 306.322479,331.996460 305.156189,331.265900 
z"/>
<path fill="#5C536C" opacity="1.000000" stroke="none" 
	d="
M308.527832,332.766968 
	C307.905670,332.386200 307.420380,331.972198 306.717407,331.317322 
	C307.223114,331.426270 307.946503,331.776123 308.804901,332.399963 
	C308.939911,332.673950 308.664703,332.733765 308.527832,332.766968 
z"/>
<path fill="#5C536C" opacity="1.000000" stroke="none" 
	d="
M299.812744,327.315430 
	C300.209381,327.367157 300.874390,327.657990 301.759460,328.247101 
	C301.346741,328.215088 300.713928,327.884827 299.812744,327.315430 
z"/>
<path fill="#A08268" opacity="1.000000" stroke="none" 
	d="
M291.799500,255.712402 
	C287.073669,253.776001 282.428680,251.359802 277.182251,248.612305 
	C268.663391,243.574387 260.746033,238.867752 253.085114,233.906113 
	C258.113251,225.427979 262.938354,217.234818 267.590332,208.944519 
	C268.184906,207.884949 267.877350,206.319168 268.147400,204.757919 
	C268.870422,204.045822 269.433807,203.563705 270.316284,202.942520 
	C277.632141,199.094055 284.628906,195.384644 291.625702,191.675232 
	C291.752106,192.503601 291.878510,193.331985 292.047729,194.577576 
	C292.078339,202.682632 292.066101,210.370499 292.078461,218.525864 
	C292.028809,231.073120 291.954590,243.152878 291.799500,255.712402 
z"/>
<path fill="#C5AE82" opacity="1.000000" stroke="none" 
	d="
M291.749390,191.248993 
	C284.628906,195.384644 277.632141,199.094055 270.322388,202.553192 
	C270.674652,200.666458 271.208923,198.961197 272.026276,197.404617 
	C277.389313,187.191483 282.837128,177.022858 288.201080,166.810181 
	C289.536377,164.267807 290.665222,161.617004 291.888977,159.016037 
	C291.968262,162.702133 292.047546,166.388214 292.180603,170.531433 
	C292.113922,177.599960 291.993500,184.211349 291.749390,191.248993 
z"/>
<path fill="#C1A679" opacity="1.000000" stroke="none" 
	d="
M292.033081,124.128807 
	C292.271332,124.551483 292.208588,124.920929 292.173401,125.568863 
	C292.119873,127.616722 292.038818,129.386093 291.599731,131.740509 
	C288.882172,137.758942 286.979462,143.450500 284.081055,148.579346 
	C273.633728,167.066269 262.815735,185.343323 252.220184,203.747116 
	C249.666656,208.182419 247.430161,212.800262 244.804550,217.532074 
	C242.477631,218.854950 240.394043,219.979919 237.936951,220.940643 
	C237.045135,219.136627 236.125259,217.507858 236.079819,215.855072 
	C235.907059,209.568420 236.016739,203.274017 236.338974,196.878738 
	C237.650635,195.695099 238.879333,194.752533 239.602234,193.514618 
	C249.358917,176.806961 259.090790,160.084213 268.675232,143.277649 
	C269.587036,141.678741 269.467651,139.491776 269.999878,137.400909 
	C270.493561,136.857452 270.814362,136.490921 271.113098,136.082077 
	C271.091064,136.039749 271.006561,136.084167 271.331177,136.075729 
	C272.209290,135.738953 272.762787,135.410614 273.564575,135.030151 
	C274.218109,134.685379 274.623322,134.392746 275.333191,134.019547 
	C276.463287,133.326096 277.288727,132.713211 278.114899,132.146866 
	C278.115662,132.193405 278.204071,132.222565 278.540741,132.122208 
	C282.960083,129.347687 287.042786,126.673538 291.125458,123.999390 
	C291.327667,124.024788 291.529877,124.050179 292.033081,124.128807 
z"/>
<path fill="#C4AC7F" opacity="1.000000" stroke="none" 
	d="
M245.047852,217.334167 
	C247.430161,212.800262 249.666656,208.182419 252.220184,203.747116 
	C262.815735,185.343323 273.633728,167.066269 284.081055,148.579346 
	C286.979462,143.450500 288.882172,137.758942 291.551636,132.177216 
	C291.903900,140.712463 291.946228,149.396042 291.938782,158.547821 
	C290.665222,161.617004 289.536377,164.267807 288.201080,166.810181 
	C282.837128,177.022858 277.389313,187.191483 272.026276,197.404617 
	C271.208923,198.961197 270.674652,200.666458 270.003326,202.692261 
	C269.433807,203.563705 268.870422,204.045822 267.809753,204.850464 
	C259.890900,209.226700 252.469376,213.280426 245.047852,217.334167 
z"/>
<path fill="#5E546D" opacity="1.000000" stroke="none" 
	d="
M290.803650,123.854599 
	C287.042786,126.673538 282.960083,129.347687 278.450897,131.732391 
	C276.928314,130.684387 275.841217,129.286682 274.734741,129.271194 
	C267.650970,129.172058 260.563080,129.448776 253.476227,129.467209 
	C233.892639,129.518158 214.308456,129.452621 194.726273,129.629181 
	C193.447357,129.640686 192.183365,131.307297 190.570129,132.100800 
	C186.086548,129.313873 181.945267,126.630165 177.803986,123.946457 
	C185.217117,119.563019 192.630234,115.179573 200.342926,110.584694 
	C203.472656,108.956795 206.302811,107.540321 209.852264,106.171326 
	C212.683487,106.479523 214.793808,106.949783 216.907516,106.965561 
	C227.477036,107.044449 238.049011,107.106407 248.616638,106.945839 
	C251.953842,106.895134 255.280289,106.136826 258.611664,105.702354 
	C269.235046,111.704842 279.858429,117.707321 290.803650,123.854599 
z"/>
<path fill="#5C536C" opacity="1.000000" stroke="none" 
	d="
M258.354431,105.445389 
	C255.280289,106.136826 251.953842,106.895134 248.616638,106.945839 
	C238.049011,107.106407 227.477036,107.044449 216.907516,106.965561 
	C214.793808,106.949783 212.683487,106.479523 210.168045,106.039871 
	C213.495087,103.467484 217.225662,101.074036 221.254059,98.470657 
	C225.530014,96.128006 229.508179,93.995277 233.809998,91.676376 
	C234.498032,91.620949 234.862381,91.751694 235.638840,92.193268 
	C236.358871,92.644508 236.666809,92.784912 236.974747,92.925316 
	C237.668884,93.282364 238.363037,93.639412 239.336487,94.079117 
	C245.776276,97.837326 251.936737,101.512871 258.354431,105.445389 
z"/>
<path fill="#C8B387" opacity="1.000000" stroke="none" 
	d="
M292.017822,367.486359 
	C303.792572,367.208588 315.564606,367.397369 327.691254,367.809814 
	C316.255737,374.983276 304.465607,381.933105 292.337677,388.987244 
	C292.004974,382.045349 292.010071,374.999146 292.017822,367.486359 
z"/>
<path fill="#5C536C" opacity="1.000000" stroke="none" 
	d="
M311.888489,334.318787 
	C312.275055,334.364075 312.913208,334.645752 313.762848,335.217590 
	C313.362915,335.190247 312.751495,334.872742 311.888489,334.318787 
z"/>
<path fill="#8E6851" opacity="1.000000" stroke="none" 
	d="
M234.375977,356.382263 
	C234.375977,356.382263 234.321152,356.569550 233.962158,356.797760 
	C233.272751,357.312927 232.942322,357.599915 232.611908,357.886841 
	C223.892532,362.584656 215.173157,367.282471 206.066757,372.012512 
	C205.712891,361.982513 205.746048,351.920319 205.671494,341.394897 
	C205.669785,340.503876 205.775787,340.075989 206.296524,339.253479 
	C208.169006,338.108673 209.645020,337.391693 211.081482,336.602753 
	C218.720871,332.406952 226.350357,328.193115 233.990021,324.453278 
	C234.004898,329.616669 234.013046,334.312378 234.018112,339.475342 
	C234.135361,345.422516 234.255661,350.902405 234.375977,356.382263 
z"/>
<path fill="#5F2D32" opacity="1.000000" stroke="none" 
	d="
M233.839081,360.998596 
	C234.162903,363.719971 234.201096,366.441406 234.178436,369.616302 
	C233.741974,367.339600 233.366394,364.609467 232.986542,361.441498 
	C233.172684,361.001984 233.363083,361.000336 233.839081,360.998596 
z"/>
<path fill="#5F2D32" opacity="1.000000" stroke="none" 
	d="
M232.996246,357.919830 
	C232.942322,357.599915 233.272751,357.312927 233.872620,356.836548 
	C234.167175,356.873566 234.192261,357.100067 234.183777,357.666626 
	C233.893646,357.988708 233.637115,357.970764 232.996246,357.919830 
z"/>
<path fill="#5F2D32" opacity="1.000000" stroke="none" 
	d="
M233.908295,385.172546 
	C234.142639,385.723785 234.179993,386.501190 234.159454,387.664612 
	C233.971481,387.166687 233.841400,386.282684 233.908295,385.172546 
z"/>
<path fill="#C1B0A2" opacity="1.000000" stroke="none" 
	d="
M252.828690,234.161118 
	C260.746033,238.867752 268.663391,243.574387 276.843628,248.499863 
	C275.231262,249.478210 273.360016,250.887527 271.480286,250.898895 
	C246.947906,251.047165 222.414093,251.041565 197.881683,250.896469 
	C196.279846,250.886978 194.686615,249.426285 193.023849,248.241791 
	C193.346817,247.552658 193.735306,247.262360 194.760406,246.933868 
	C196.937943,245.877274 198.478867,244.858887 200.019791,243.840485 
	C211.300125,237.154327 222.580444,230.468170 234.068787,223.475906 
	C234.276794,223.169815 234.493530,223.144592 234.692093,223.147156 
	C235.155701,223.141663 235.419052,223.116150 235.763947,223.421417 
	C241.507690,227.233505 247.168182,230.697311 252.828690,234.161118 
z"/>
<path fill="#D2BAA7" opacity="1.000000" stroke="none" 
	d="
M188.062759,263.492615 
	C190.804169,262.807892 193.706940,262.066345 196.612350,262.055847 
	C222.119919,261.963654 247.628067,261.971069 273.135681,262.058624 
	C275.207855,262.065704 277.277283,262.885345 279.661102,263.636810 
	C279.974213,263.946198 280.030884,264.099762 279.672852,264.126770 
	C273.937134,267.206146 268.559448,270.258545 262.943604,272.975891 
	C260.877228,272.093933 259.066620,271.152313 257.217621,271.069672 
	C249.832458,270.739532 242.428284,270.396484 235.044388,270.582977 
	C225.004089,270.836517 214.975906,271.570282 204.972885,272.112579 
	C205.003235,272.127045 204.963165,272.181061 204.777679,271.861938 
	C203.024048,271.042023 201.455917,270.541168 199.887772,270.040344 
	C197.482712,268.790039 195.077652,267.539734 192.330811,266.253906 
	C190.734467,265.403839 189.479904,264.589294 188.062759,263.492615 
z"/>
<path fill="#CAB5A5" opacity="1.000000" stroke="none" 
	d="
M199.666779,243.891891 
	C198.478867,244.858887 196.937943,245.877274 195.005188,246.893433 
	C196.180161,245.908569 197.746964,244.925934 199.666779,243.891891 
z"/>
<path fill="#70413B" opacity="1.000000" stroke="none" 
	d="
M233.243683,222.903900 
	C233.201019,222.052292 233.432297,221.272018 233.932678,220.644348 
	C234.299042,221.579514 234.396286,222.362045 234.493530,223.144592 
	C234.493530,223.144592 234.276794,223.169815 234.171417,223.142700 
	C233.883240,223.068817 233.700439,223.022034 233.243683,222.903900 
z"/>
<path fill="#C8B387" opacity="1.000000" stroke="none" 
	d="
M236.798538,92.750801 
	C236.666809,92.784912 236.358871,92.644508 235.914856,92.281006 
	C236.084198,92.191277 236.365387,92.364067 236.798538,92.750801 
z"/>
<path fill="#C8B387" opacity="1.000000" stroke="none" 
	d="
M234.008728,90.988152 
	C234.009796,90.967896 234.146881,90.911652 234.094330,90.947319 
	C234.041763,90.982986 234.007675,91.008408 234.008728,90.988152 
z"/>
<path fill="#A99B97" opacity="1.000000" stroke="none" 
	d="
M295.877655,321.682190 
	C294.927704,321.880310 294.087524,322.127411 292.966919,322.559631 
	C292.720734,314.432281 292.754974,306.119751 292.826355,297.387268 
	C304.123260,297.317017 315.384918,297.620056 326.640717,298.069702 
	C328.223846,298.132935 329.778381,298.913208 331.631226,299.600403 
	C322.052673,305.622040 312.188995,311.404877 302.076904,317.401855 
	C300.351715,318.414795 298.874969,319.213593 296.916382,320.421844 
	C296.274994,321.210693 296.115387,321.590088 295.955811,321.969452 
	C295.955811,321.969452 295.987396,321.731171 295.877655,321.682190 
z"/>
<path fill="#815B4C" opacity="1.000000" stroke="none" 
	d="
M233.983276,323.985565 
	C226.350357,328.193115 218.720871,332.406952 211.081482,336.602753 
	C209.645020,337.391693 208.169006,338.108673 206.363754,338.930542 
	C205.980179,330.082306 205.976761,321.161987 205.880386,312.242706 
	C205.861176,310.463135 205.486984,308.687408 205.446625,306.528900 
	C212.371780,302.390350 219.126801,298.632782 226.217438,294.749207 
	C228.823288,293.115875 231.093521,291.608490 233.587860,290.136322 
	C233.811966,290.171539 234.256775,290.260712 234.220535,290.774689 
	C234.117294,302.187622 234.050278,313.086609 233.983276,323.985565 
z"/>
<path fill="#5F2D32" opacity="1.000000" stroke="none" 
	d="
M153.208557,309.253876 
	C161.519577,308.816925 170.071762,308.627991 178.623215,308.410309 
	C185.163345,308.243835 191.709091,308.150726 198.236649,307.761688 
	C199.541214,307.683960 200.774841,306.415710 202.326508,305.359924 
	C202.611862,305.023438 202.642654,305.079285 202.642654,305.079285 
	C202.005676,306.553894 201.784149,308.705688 200.664062,309.392822 
	C193.585892,313.735321 186.357162,317.843231 179.048798,321.789062 
	C177.839035,322.442200 175.670609,322.498169 174.495163,321.843170 
	C167.391129,317.884583 160.446991,313.639099 153.208557,309.253876 
z"/>
<path fill="#B48D80" opacity="1.000000" stroke="none" 
	d="
M203.024063,305.243835 
	C202.642654,305.079285 202.611862,305.023438 202.585541,305.004883 
	C196.737595,301.541168 190.915955,298.096039 185.306671,294.360352 
	C196.095261,293.714691 206.669983,293.209442 217.248703,293.103577 
	C220.120209,293.074829 223.003784,294.251709 225.881836,294.875244 
	C219.126801,298.632782 212.371780,302.390350 205.237488,306.178040 
	C204.373978,305.941589 203.889725,305.674988 203.024063,305.243835 
z"/>
<path fill="#A76351" opacity="1.000000" stroke="none" 
	d="
M120.161057,158.194489 
	C125.357918,154.662979 130.809006,151.371048 136.887726,148.265640 
	C139.393478,148.966217 141.269531,149.918579 143.150055,149.927460 
	C165.258728,150.031815 187.368790,150.070084 209.475937,149.858124 
	C211.332916,149.840332 213.171387,147.891205 215.356262,146.951111 
	C221.648972,150.647980 227.603851,154.233078 233.337036,158.080750 
	C232.670609,158.870285 232.225876,159.397263 231.781158,159.924225 
	C227.541046,161.983887 223.300964,164.043564 218.733414,166.174164 
	C215.823288,165.830109 213.242096,165.065765 210.657745,165.054901 
	C188.119171,164.960037 165.579910,165.038528 143.041214,164.959244 
	C139.588150,164.947113 136.136978,164.391708 132.242615,164.077637 
	C128.005295,162.189819 124.210281,160.311935 120.161057,158.194489 
z"/>
<path fill="#C5AE82" opacity="1.000000" stroke="none" 
	d="
M234.692093,223.147156 
	C234.396286,222.362045 234.299042,221.579514 234.136154,220.408875 
	C234.151321,200.319962 234.232132,180.619156 234.322662,160.212631 
	C234.357117,159.341156 234.381866,159.175385 234.529434,158.843201 
	C234.787079,158.427200 234.863434,158.160812 234.922668,157.879547 
	C234.964035,157.881454 234.993408,157.958878 235.210846,158.313934 
	C235.613983,160.471252 235.950577,162.272690 235.960678,164.075928 
	C236.022018,175.044556 236.009048,186.013611 236.020874,196.982513 
	C236.016739,203.274017 235.907059,209.568420 236.079819,215.855072 
	C236.125259,217.507858 237.045135,219.136627 237.712128,221.183563 
	C237.134094,222.084869 236.407410,222.579010 235.680725,223.073166 
	C235.419052,223.116150 235.155701,223.141663 234.692093,223.147156 
z"/>
<path fill="#70413B" opacity="1.000000" stroke="none" 
	d="
M234.406616,159.009628 
	C234.381866,159.175385 234.357117,159.341156 234.257904,159.746552 
	C233.650864,159.978714 233.118301,159.971252 232.183456,159.944000 
	C232.225876,159.397263 232.670609,158.870285 233.389435,158.104492 
	C233.663544,157.865662 233.782028,157.907211 233.926895,158.189209 
	C234.183365,158.650681 234.294983,158.830154 234.406616,159.009628 
z"/>
<path fill="#A8867C" opacity="1.000000" stroke="none" 
	d="
M226.217438,294.749237 
	C223.003784,294.251709 220.120209,293.074829 217.248703,293.103577 
	C206.669983,293.209442 196.095261,293.714691 185.057312,294.106720 
	C184.152573,293.962402 183.709534,293.781128 183.039001,293.291107 
	C182.616226,292.733521 182.367950,292.673248 182.066666,292.801483 
	C180.655289,292.202698 179.243927,291.603943 177.502304,290.976990 
	C177.172058,290.948792 176.998672,290.500183 176.920013,290.273071 
	C184.500641,285.625641 192.172928,281.227570 199.807327,276.764648 
	C201.190689,275.955994 202.418716,274.881592 203.961746,273.400909 
	C204.457748,272.641632 204.710464,272.411346 204.963165,272.181061 
	C204.963165,272.181061 205.003235,272.127045 205.139374,272.403503 
	C207.341293,274.029541 209.377319,275.427521 211.478287,276.719971 
	C218.761246,281.200165 226.066788,285.643646 233.363739,290.101105 
	C231.093521,291.608490 228.823288,293.115875 226.217438,294.749237 
z"/>
<path fill="#D8BEA9" opacity="1.000000" stroke="none" 
	d="
M204.777679,271.861938 
	C204.710464,272.411346 204.457748,272.641632 204.076843,273.096649 
	C202.690765,272.429749 201.432907,271.538116 200.031403,270.343414 
	C201.455917,270.541168 203.024048,271.042023 204.777679,271.861938 
z"/>
<path fill="#5C536C" opacity="1.000000" stroke="none" 
	d="
M296.164856,321.747437 
	C296.115387,321.590088 296.274994,321.210693 296.700439,320.644287 
	C296.768799,320.813293 296.571320,321.169342 296.164856,321.747437 
z"/>
<path fill="#B48D80" opacity="1.000000" stroke="none" 
	d="
M182.271500,292.939880 
	C182.367950,292.673248 182.616226,292.733521 182.877808,293.110260 
	C182.944138,293.238159 182.476334,293.078247 182.271500,292.939880 
z"/>
<path fill="#9D6050" opacity="1.000000" stroke="none" 
	d="
M215.018448,146.839355 
	C213.171387,147.891205 211.332916,149.840332 209.475937,149.858124 
	C187.368790,150.070084 165.258728,150.031815 143.150055,149.927460 
	C141.269531,149.918579 139.393478,148.966217 137.231598,148.177948 
	C144.146866,143.457474 151.345856,139.011200 158.789795,134.343597 
	C164.587341,130.946442 170.139954,127.770615 175.877411,124.309708 
	C176.449814,124.008186 176.837387,123.991753 177.514465,123.960892 
	C181.945267,126.630165 186.086548,129.313873 190.790344,132.348724 
	C199.241379,137.413025 207.129913,142.126190 215.018448,146.839355 
z"/>
<path fill="#997862" opacity="1.000000" stroke="none" 
	d="
M234.511688,356.358337 
	C234.255661,350.902405 234.135361,345.422516 234.364151,339.402679 
	C236.584518,337.345612 239.108398,336.203308 240.227570,334.254333 
	C253.616180,310.938873 266.796265,287.503662 280.030884,264.099762 
	C280.030884,264.099762 279.974213,263.946198 279.957031,263.866028 
	C279.939850,263.785828 280.284637,263.835876 280.830200,263.865875 
	C282.260376,263.228333 283.144989,262.560760 284.029572,261.893219 
	C286.434509,260.584229 288.839447,259.275238 291.601074,257.958649 
	C292.140961,266.031952 292.324158,274.112823 292.629028,282.580170 
	C292.494293,284.396362 292.237915,285.826111 291.956116,287.622437 
	C288.854340,287.726593 286.758942,288.673553 285.077087,291.647369 
	C277.397888,305.225525 269.375885,318.609375 261.636993,332.154449 
	C260.360291,334.388977 257.035492,337.049866 261.754211,339.796661 
	C253.172531,345.300537 244.338028,350.590485 235.213226,356.110413 
	C234.922943,356.340332 234.647400,356.334442 234.511688,356.358337 
z"/>
<path fill="#96745C" opacity="1.000000" stroke="none" 
	d="
M283.696838,261.952454 
	C283.144989,262.560760 282.260376,263.228333 281.001587,263.897278 
	C281.539612,263.269653 282.451843,262.640656 283.696838,261.952454 
z"/>
<path fill="#997862" opacity="1.000000" stroke="none" 
	d="
M235.763947,223.421417 
	C236.407410,222.579010 237.134094,222.084869 238.085602,221.347794 
	C240.394043,219.979919 242.477631,218.854950 244.804535,217.532074 
	C252.469376,213.280426 259.890900,209.226700 267.650085,205.080444 
	C267.877350,206.319168 268.184906,207.884949 267.590332,208.944519 
	C262.938354,217.234818 258.113251,225.427979 253.085114,233.906113 
	C247.168182,230.697311 241.507690,227.233505 235.763947,223.421417 
z"/>
<path fill="#655870" opacity="1.000000" stroke="none" 
	d="
M215.356262,146.951111 
	C207.129913,142.126190 199.241379,137.413025 191.132629,132.451950 
	C192.183365,131.307297 193.447357,129.640686 194.726273,129.629181 
	C214.308456,129.452621 233.892639,129.518158 253.476227,129.467209 
	C260.563080,129.448776 267.650970,129.172058 274.734741,129.271194 
	C275.841217,129.286682 276.928314,130.684387 278.114227,131.832764 
	C278.204071,132.222565 278.115662,132.193405 277.767792,132.150589 
	C276.622803,132.771881 275.825653,133.435989 275.028534,134.100098 
	C274.623322,134.392746 274.218109,134.685379 273.241943,135.072998 
	C272.116180,135.473373 271.561371,135.778778 271.006561,136.084167 
	C271.006561,136.084167 271.091064,136.039749 270.764404,136.078674 
	C269.633636,136.773697 268.829559,137.429794 267.789062,138.323273 
	C264.355988,140.533188 261.159363,142.505768 257.643616,144.611603 
	C256.756866,145.132278 256.189240,145.519714 255.303757,146.009964 
	C248.321732,150.061478 241.657562,154.010178 234.993408,157.958878 
	C234.993408,157.958878 234.964035,157.881454 234.647812,157.879395 
	C234.148407,157.887314 233.965210,157.897263 233.782028,157.907211 
	C233.782028,157.907211 233.663544,157.865662 233.611145,157.841919 
	C227.603851,154.233078 221.648972,150.647980 215.356262,146.951111 
z"/>
<path fill="#BDA071" opacity="1.000000" stroke="none" 
	d="
M235.210846,158.313934 
	C241.657562,154.010178 248.321732,150.061478 255.658722,145.946045 
	C256.875275,145.345673 257.418976,144.912018 257.962708,144.478348 
	C261.159363,142.505768 264.355988,140.533188 268.093323,138.253403 
	C269.031677,137.823410 269.429321,137.700623 269.826965,137.577835 
	C269.467651,139.491776 269.587036,141.678741 268.675232,143.277649 
	C259.090790,160.084213 249.358917,176.806961 239.602234,193.514618 
	C238.879333,194.752533 237.650635,195.695099 236.338974,196.878738 
	C236.009048,186.013611 236.022018,175.044556 235.960678,164.075928 
	C235.950577,162.272690 235.613983,160.471252 235.210846,158.313934 
z"/>
<path fill="#5E546D" opacity="1.000000" stroke="none" 
	d="
M275.333191,134.019547 
	C275.825653,133.435989 276.622803,132.771881 277.767029,132.104050 
	C277.288727,132.713211 276.463287,133.326096 275.333191,134.019547 
z"/>
<path fill="#5E546D" opacity="1.000000" stroke="none" 
	d="
M269.999878,137.400909 
	C269.429321,137.700623 269.031677,137.823410 268.329742,138.016052 
	C268.829559,137.429794 269.633636,136.773697 270.786438,136.121002 
	C270.814362,136.490921 270.493561,136.857452 269.999878,137.400909 
z"/>
<path fill="#5E546D" opacity="1.000000" stroke="none" 
	d="
M271.331177,136.075745 
	C271.561371,135.778778 272.116180,135.473373 272.993652,135.125122 
	C272.762787,135.410614 272.209290,135.738953 271.331177,136.075745 
z"/>
<path fill="#96745C" opacity="1.000000" stroke="none" 
	d="
M279.672852,264.126770 
	C266.796265,287.503662 253.616180,310.938873 240.227570,334.254333 
	C239.108398,336.203308 236.584518,337.345612 234.367218,338.935364 
	C234.013046,334.312378 234.004898,329.616669 233.990021,324.453278 
	C234.050278,313.086609 234.117294,302.187622 234.444275,290.591461 
	C244.196747,284.366486 253.689240,278.838715 263.181732,273.310974 
	C268.559448,270.258545 273.937134,267.206146 279.672852,264.126770 
z"/>
<path fill="#D8BEA9" opacity="1.000000" stroke="none" 
	d="
M262.943604,272.975861 
	C253.689240,278.838715 244.196747,284.366486 234.480515,290.077484 
	C234.256775,290.260712 233.811966,290.171539 233.587860,290.136322 
	C226.066788,285.643646 218.761246,281.200165 211.478287,276.719971 
	C209.377319,275.427521 207.341293,274.029541 205.109009,272.389038 
	C214.975906,271.570282 225.004089,270.836517 235.044388,270.582977 
	C242.428284,270.396484 249.832458,270.739532 257.217621,271.069672 
	C259.066620,271.152313 260.877228,272.093933 262.943604,272.975861 
z"/>
<path fill="#A08268" opacity="1.000000" stroke="none" 
	d="
M233.926895,158.189209 
	C233.965210,157.897263 234.148407,157.887314 234.606445,157.877502 
	C234.863434,158.160812 234.787079,158.427200 234.529434,158.843201 
	C234.294983,158.830154 234.183365,158.650681 233.926895,158.189209 
z"/>
<path fill="#C1A679" opacity="1.000000" stroke="none" 
	d="
M257.643616,144.611603 
	C257.418976,144.912018 256.875275,145.345673 255.976578,145.843231 
	C256.189240,145.519714 256.756866,145.132278 257.643616,144.611603 
z"/>
</svg>