<?xml version="1.0" encoding="iso-8859-1"?>
<!-- Generator: Adobe Illustrator 19.0.0, SVG Export Plug-In . SVG Version: 6.00 Build 0)  -->
<svg xmlns="http://www.w3.org/2000/svg" xmlns:xlink="http://www.w3.org/1999/xlink" version="1.1" id="Layer_1" x="0px" y="0px" viewBox="0 0 512.002 512.002" style="enable-background:new 0 0 512.002 512.002;" xml:space="preserve">
<g>
	<path style="fill:#FEA001;" d="M330.702,26.755c0,0,28.833-16.854,83.921,36.032c13.202,12.674,24.086,27.635,31.43,44.398   c0.397,0.905,0.787,1.822,1.173,2.752c22.542,54.37,9.831,112.847-4.799,152.33c-2.711,7.313-4.794,14.791-6.257,22.346   c-2.042,10.546-10.287,18.797-20.784,21.07l-24.835,5.377L330.702,26.755z"/>
	<path style="fill:#FEA001;" d="M335.059,11.503C221.782-6.065,229.619,50.025,229.619,50.025l19.36,27.983l54.025,5.445   L335.059,11.503z"/>
</g>
<path style="fill:#CCCCCC;" d="M365.973,422.946H181.146c-45.055,0-81.578,36.524-81.578,81.578l0,0h347.984l0,0  C447.552,459.47,411.028,422.946,365.973,422.946z"/>
<path style="opacity:0.1;enable-background:new    ;" d="M230.974,422.946h-49.828c-45.054,0-81.578,36.524-81.578,81.578l0,0  h49.828l0,0C149.396,459.47,185.92,422.946,230.974,422.946z"/>
<path style="fill:#FFD54F;" d="M407.907,388.624c-21.183-44.293-22.84-95.253-5.779-141.291  C444.07,134.158,381.47,90.338,381.47,90.338s11.084-47.296-17.805-82.852c0,0-51.112-1.666-80,38.333  c0,0-94.032-12.833-144.374,70.661c0,0-76.42,13.993-86.159,66.163c-1.488,7.968-0.339,16.304,3.997,23.151  c7.997,12.63,21.684,12.886,45.41,8.829l-1.566,1.354c0,0,21.129,51.526,111.989,9.779c0,0,12.033,4.712,28.992,6.332  c6.84,67.513-105.16,60.25-105.16,172.891l136.765,17.964l143.036-17.964C416.595,404.981,412.799,398.853,407.907,388.624z"/>
<path style="opacity:0.1;enable-background:new    ;" d="M223.136,298.554c41.22-40.538,18.819-66.463,18.819-66.463  c6.84,67.513-105.16,60.25-105.16,172.891l52.265,7.193C174.744,378.542,186.018,335.058,223.136,298.554z"/>
<path style="fill:#B3B3B3;" d="M429.587,404.981H117.533c-9.922,0-17.965,8.043-17.965,17.965l0,0  c0,9.922,8.043,17.965,17.965,17.965h312.054c9.922,0,17.965-8.043,17.965-17.965l0,0  C447.552,413.024,439.509,404.981,429.587,404.981z"/>
<path style="opacity:0.1;enable-background:new    ;" d="M169.327,422.946L169.327,422.946c0-9.922,8.043-17.965,17.965-17.965  h-69.76c-9.922,0-17.965,8.043-17.965,17.965l0,0c0,9.922,8.043,17.965,17.965,17.965h69.76  C177.371,440.911,169.327,432.868,169.327,422.946z"/>
<path d="M350.083,90.783c0.496,0.1,0.99,0.146,1.476,0.146c3.488,0,6.609-2.456,7.321-6.007c0.516-2.576,4.782-25.807-4.336-47.753  c-1.387-3.337-4.961-5.204-8.492-4.436c-13.149,2.861-31.38,9.813-43.565,26.684c-2.417,3.346-1.663,8.018,1.683,10.436  c3.345,2.417,8.018,1.662,10.435-1.683c7.638-10.575,18.692-16.181,28.251-19.153c4.609,16.286,1.517,32.218,1.366,32.969  C343.412,86.034,346.035,89.972,350.083,90.783z"/>
<circle cx="210.13" cy="112.811" r="13.005"/>
<ellipse transform="matrix(-0.1958 0.9806 -0.9806 -0.1958 285.1913 120.876)" cx="93.032" cy="177.376" rx="21.778" ry="12.171"/>
<path d="M80.851,224.372c4.707,0,9.872-0.467,15.512-1.246c3.531,5.674,11.499,15.598,26.578,21.543  c8.329,3.283,17.567,4.921,27.689,4.921c18.143,0,39.108-5.271,62.674-15.782c4.021,1.331,11.662,3.554,21.438,4.984  c-0.527,22.042-17.438,34.618-38.421,50.198c-28.702,21.313-64.148,47.643-66.835,108.519h-11.958  c-14.028,0-25.439,11.412-25.439,25.439c0,12.285,8.752,22.562,20.348,24.927c-13.082,15.808-20.348,35.688-20.348,56.652  c0,4.128,3.346,7.474,7.474,7.474h269.801c4.128,0,7.474-3.346,7.474-7.474s-3.346-7.474-7.474-7.474H107.411  c1.888-18.847,10.882-36.177,25.386-48.665h281.52c14.503,12.487,23.497,29.817,25.386,48.665h-40.439  c-4.128,0-7.474,3.346-7.474,7.474s3.346,7.474,7.474,7.474h48.286c4.128,0,7.474-3.346,7.474-7.474  c0-20.964-7.266-40.844-20.348-56.652c11.596-2.365,20.348-12.642,20.348-24.927c0-14.028-11.412-25.439-25.439-25.439h-8.687  c-1.51-2.699-3.73-6.841-6.248-12.107c-10.207-21.342-15.705-44.691-16.451-68.349l18.766-4.064  c13.519-2.928,23.938-13.508,26.541-26.954c2.38-12.292,7.326-24.269,11.118-36.349c1.237-3.938-0.955-8.133-4.893-9.37  c-3.939-1.236-8.133,0.955-9.37,4.893c-3.982,12.688-8.992,24.869-11.531,37.984c-1.465,7.565-7.364,13.526-15.028,15.186  l-15.427,3.34c0.808-14.601,3.425-29.18,7.874-43.343c0.021-0.066,0.043-0.133,0.064-0.199c2.1-6.602,4.829-13.547,7.009-20.334  c5.123-15.95,8.422-31.225,9.893-45.77c1.938-19.161,0.798-38.751-4.769-57.252c-1.189-3.952-5.359-6.194-9.311-5.004  c-1.729,0.52-3.131,1.61-4.061,3.005c-1.225,1.835-1.579,4.196-0.943,6.306c8.956,29.772,5.925,65.305-9.011,105.608  c-7.771,20.969-11.972,43.731-12.04,66.301c-0.001,0.384,0.038,0.761,0.094,1.135c0.099,27.536,6.117,54.848,17.991,79.678  c0.755,1.58,1.742,3.571,2.809,5.658H208.918c-4.128,0-7.474,3.346-7.474,7.474c0,4.008,3.469,7.474,7.474,7.474h220.666  c5.785,0,10.491,4.706,10.491,10.491s-4.706,10.491-10.491,10.491H117.529c-5.785,0-10.491-4.706-10.491-10.491  s4.706-10.491,10.491-10.491c0,0,61.394,0,61.492,0c4.005,0,7.474-3.473,7.474-7.474c0-4.128-3.346-7.474-7.474-7.474h-34.574  c2.631-53.338,33.453-76.221,60.787-96.517c22.312-16.568,43.488-32.304,44.459-60.892c16.209,0.455,35.32-2.246,53.177-12.901  c3.545-2.116,4.704-6.704,2.589-10.249c-2.116-3.545-6.703-4.704-10.249-2.589c-35.441,21.145-79.097,4.604-79.523,4.439  c-1.89-0.741-4.002-0.681-5.848,0.166c-33.371,15.333-61.372,19.471-80.976,11.965c-7.575-2.9-12.671-7.036-15.949-10.598  c3.788-0.717,7.74-1.494,11.877-2.307c6.932-1.364,14.789-2.911,23.203-4.442c4.061-0.738,6.755-4.63,6.016-8.691  s-4.633-6.755-8.691-6.016c-8.521,1.55-16.433,3.107-23.415,4.482c-36.353,7.155-51.386,9.613-58.462-1.562  c-3.13-4.942-4.183-11.257-2.966-17.781c8.673-46.452,79.451-60.051,80.159-60.183c2.108-0.386,3.948-1.658,5.055-3.493  c19.672-32.627,48.498-53.838,85.677-63.05c0.015-0.003,0.03-0.004,0.045-0.008c16.389-4.057,34.352-6.58,51.164-4.066  c0.042,0.005,0.071,0.009,0.079,0.01c0.257,0.035,0.512,0.043,0.767,0.052c0.085,0.003,0.169,0.018,0.254,0.017  c2.376-0.003,4.632-1.14,6.046-3.098c0.015-0.021,0.031-0.04,0.045-0.06c22.051-30.469,59-34.576,70.281-35.108  c23.401,31.853,14.237,73.19,14.141,73.603c-0.02,0.086-0.023,0.172-0.04,0.258c-0.551,2.788,0.527,5.637,2.78,7.365  c0.076,0.059,0.141,0.127,0.218,0.182c0.07,0.05,7.082,5.131,14.431,15.97c2.276,3.355,7.018,4.276,10.38,1.992  c3.342-2.271,4.259-7.037,1.992-10.38c-3.143-4.637-6.657-9.032-10.576-13.038c-0.396-0.404-3.826-3.166-3.755-3.602  c1.076-6.789,2.48-20.225,0.299-35.938c6.355,4.769,12.881,10.361,19.523,16.737c13.007,12.487,23.02,26.619,29.759,42.005  c14.505,33.111,15.477,70.239,8.698,105.337c-0.038,0.197-0.077,0.395-0.115,0.593c-0.792,4.051,1.849,7.978,5.9,8.77  c3.998,0.782,7.988-1.903,8.77-5.9c8.098-41.396,5.296-79.048-8.329-111.909c-0.405-0.977-0.815-1.939-1.232-2.888  c-7.532-17.194-18.668-32.937-33.1-46.791c-12.036-11.555-23.835-20.782-35.117-27.473c-3.298-9.172-8.152-18.455-15.216-27.148  c-1.365-1.681-3.393-2.687-5.557-2.757c-1.059-0.035-13.431-0.326-29.447,3.846c-14.276-2.142-27.423-3.239-39.076-3.239  c-23.286,0-53.873,4.578-67.352,26.387c-3.763,6.089-5.359,12.316-5.826,17.26c-27.269,7.789-62.349,25.485-87.596,65.559  c-6.565,1.489-21.875,5.49-38.053,13.466c-28.786,14.192-46.342,34.24-50.775,57.978c-1.912,10.249-0.127,20.378,5.031,28.522  C57.67,220.623,67.428,224.372,80.851,224.372z M295.384,15.571c3.264,0,6.661,0.094,10.18,0.277  c-8.937,5.368-17.712,12.54-25.339,22.136c-7.305-0.53-22.909-0.962-42.098,2.566c0.903-2.823,2.481-6.054,5.219-9.201  C252.325,21.028,270.32,15.571,295.384,15.571z"/>
<g>
</g>
<g>
</g>
<g>
</g>
<g>
</g>
<g>
</g>
<g>
</g>
<g>
</g>
<g>
</g>
<g>
</g>
<g>
</g>
<g>
</g>
<g>
</g>
<g>
</g>
<g>
</g>
<g>
</g>
</svg>
